<svg width="346" height="83" viewBox="0 0 346 83" fill="none" xmlns="http://www.w3.org/2000/svg">
<path d="M122.89 68.548C120.067 68.548 117.463 68.0714 115.08 67.118C112.733 66.128 110.68 64.753 108.92 62.993C107.197 61.1964 105.858 59.088 104.905 56.668C103.952 54.2114 103.475 51.5347 103.475 48.638C103.475 45.8147 103.97 43.2114 104.96 40.828C105.95 38.408 107.343 36.318 109.14 34.558C110.937 32.7614 113.045 31.368 115.465 30.378C117.885 29.388 120.507 28.893 123.33 28.893C125.163 28.893 126.96 29.1497 128.72 29.663C130.517 30.1397 132.148 30.8547 133.615 31.808C135.118 32.7614 136.402 33.898 137.465 35.218L132.295 40.938C131.415 40.058 130.498 39.3064 129.545 38.683C128.628 38.023 127.638 37.528 126.575 37.198C125.548 36.8314 124.448 36.648 123.275 36.648C121.698 36.648 120.213 36.9414 118.82 37.528C117.463 38.1147 116.272 38.9397 115.245 40.003C114.218 41.0297 113.393 42.2947 112.77 43.798C112.183 45.2647 111.89 46.8964 111.89 48.693C111.89 50.5264 112.183 52.1947 112.77 53.698C113.357 55.1647 114.182 56.4297 115.245 57.493C116.308 58.5197 117.573 59.3264 119.04 59.913C120.543 60.463 122.193 60.738 123.99 60.738C125.163 60.738 126.3 60.573 127.4 60.243C128.5 59.913 129.508 59.4547 130.425 58.868C131.378 58.2814 132.222 57.603 132.955 56.833L136.97 63.268C136.09 64.258 134.898 65.1564 133.395 65.963C131.928 66.7697 130.278 67.4114 128.445 67.888C126.612 68.328 124.76 68.548 122.89 68.548ZM143.485 67.998V38.903H151.295V67.998H143.485ZM147.335 32.908C145.832 32.908 144.658 32.5414 143.815 31.808C142.972 31.0747 142.55 30.0297 142.55 28.673C142.55 27.4264 142.972 26.418 143.815 25.648C144.695 24.8414 145.868 24.438 147.335 24.438C148.838 24.438 150.012 24.823 150.855 25.593C151.698 26.3264 152.12 27.353 152.12 28.673C152.12 29.9564 151.68 30.983 150.8 31.753C149.957 32.523 148.802 32.908 147.335 32.908ZM159.636 67.998V38.903H167.116L167.336 44.843L165.796 45.503C166.2 44.183 166.915 42.9914 167.941 41.928C169.005 40.828 170.27 39.948 171.736 39.288C173.203 38.628 174.743 38.298 176.356 38.298C178.556 38.298 180.39 38.738 181.856 39.618C183.36 40.498 184.478 41.8364 185.211 43.633C185.981 45.393 186.366 47.5747 186.366 50.178V67.998H178.556V50.783C178.556 49.463 178.373 48.363 178.006 47.483C177.64 46.603 177.071 45.9614 176.301 45.558C175.568 45.118 174.651 44.9347 173.551 45.008C172.671 45.008 171.846 45.1547 171.076 45.448C170.343 45.7047 169.701 46.0897 169.151 46.603C168.638 47.1164 168.216 47.703 167.886 48.363C167.593 49.023 167.446 49.738 167.446 50.508V67.998H163.596C162.753 67.998 162.001 67.998 161.341 67.998C160.681 67.998 160.113 67.998 159.636 67.998ZM207.655 68.548C204.502 68.548 201.752 67.9064 199.405 66.623C197.059 65.3397 195.225 63.5797 193.905 61.343C192.585 59.1064 191.925 56.5397 191.925 53.643C191.925 51.4064 192.292 49.353 193.025 47.483C193.759 45.613 194.785 43.9997 196.105 42.643C197.425 41.2497 198.984 40.1864 200.78 39.453C202.614 38.683 204.594 38.298 206.72 38.298C208.7 38.298 210.534 38.6647 212.22 39.398C213.907 40.0947 215.355 41.103 216.565 42.423C217.812 43.7064 218.765 45.228 219.425 46.988C220.085 48.748 220.379 50.673 220.305 52.763L220.25 55.183H196.875L195.61 50.398H213.815L212.935 51.388V50.178C212.862 49.188 212.532 48.2897 211.945 47.483C211.395 46.6764 210.68 46.053 209.8 45.613C208.92 45.173 207.93 44.953 206.83 44.953C205.217 44.953 203.842 45.2647 202.705 45.888C201.605 46.5114 200.762 47.428 200.175 48.638C199.589 49.848 199.295 51.3147 199.295 53.038C199.295 54.798 199.662 56.3197 200.395 57.603C201.165 58.8864 202.229 59.8947 203.585 60.628C204.979 61.3247 206.61 61.673 208.48 61.673C209.764 61.673 210.937 61.4714 212 61.068C213.064 60.6647 214.2 59.968 215.41 58.978L219.15 64.203C218.087 65.1564 216.914 65.963 215.63 66.623C214.347 67.2464 213.027 67.723 211.67 68.053C210.314 68.383 208.975 68.548 207.655 68.548ZM202.54 35.328L200.175 31.698L209.36 24.218L213.265 29.553L202.54 35.328ZM232.736 67.998V36.923H221.516V29.498H252.536V36.923H240.986V67.998H232.736ZM266.576 68.548C263.423 68.548 260.673 67.9064 258.326 66.623C255.98 65.3397 254.146 63.5797 252.826 61.343C251.506 59.1064 250.846 56.5397 250.846 53.643C250.846 51.4064 251.213 49.353 251.946 47.483C252.68 45.613 253.706 43.9997 255.026 42.643C256.346 41.2497 257.905 40.1864 259.701 39.453C261.535 38.683 263.515 38.298 265.641 38.298C267.621 38.298 269.455 38.6647 271.141 39.398C272.828 40.0947 274.276 41.103 275.486 42.423C276.733 43.7064 277.686 45.228 278.346 46.988C279.006 48.748 279.3 50.673 279.226 52.763L279.171 55.183H255.796L254.531 50.398H272.736L271.856 51.388V50.178C271.783 49.188 271.453 48.2897 270.866 47.483C270.316 46.6764 269.601 46.053 268.721 45.613C267.841 45.173 266.851 44.953 265.751 44.953C264.138 44.953 262.763 45.2647 261.626 45.888C260.526 46.5114 259.683 47.428 259.096 48.638C258.51 49.848 258.216 51.3147 258.216 53.038C258.216 54.798 258.583 56.3197 259.316 57.603C260.086 58.8864 261.15 59.8947 262.506 60.628C263.9 61.3247 265.531 61.673 267.401 61.673C268.685 61.673 269.858 61.4714 270.921 61.068C271.985 60.6647 273.121 59.968 274.331 58.978L278.071 64.203C277.008 65.1564 275.835 65.963 274.551 66.623C273.268 67.2464 271.948 67.723 270.591 68.053C269.235 68.383 267.896 68.548 266.576 68.548ZM297.648 68.548C294.861 68.548 292.368 67.888 290.168 66.568C287.968 65.248 286.226 63.4514 284.943 61.178C283.696 58.9047 283.073 56.3197 283.073 53.423C283.073 50.563 283.696 47.9964 284.943 45.723C286.226 43.413 287.968 41.598 290.168 40.278C292.368 38.958 294.861 38.298 297.648 38.298C300.251 38.298 302.634 38.7747 304.798 39.728C306.961 40.6814 308.648 42.0014 309.858 43.688L305.568 48.858C305.054 48.1614 304.413 47.538 303.643 46.988C302.873 46.4014 302.029 45.943 301.113 45.613C300.233 45.283 299.316 45.118 298.363 45.118C296.859 45.118 295.521 45.4847 294.348 46.218C293.211 46.9147 292.313 47.8864 291.653 49.133C290.993 50.3797 290.663 51.8097 290.663 53.423C290.663 54.9997 290.993 56.4114 291.653 57.658C292.349 58.868 293.284 59.858 294.458 60.628C295.631 61.3614 296.951 61.728 298.418 61.728C299.371 61.728 300.269 61.5997 301.113 61.343C301.956 61.0497 302.744 60.628 303.478 60.078C304.248 59.528 304.944 58.868 305.568 58.098L309.803 63.268C308.556 64.8447 306.833 66.128 304.633 67.118C302.433 68.0714 300.104 68.548 297.648 68.548ZM314.807 67.998V27.298H322.507V44.843L320.967 45.503C321.371 44.183 322.086 42.9914 323.112 41.928C324.176 40.828 325.441 39.948 326.907 39.288C328.374 38.628 329.914 38.298 331.527 38.298C333.727 38.298 335.561 38.738 337.027 39.618C338.531 40.498 339.649 41.8364 340.382 43.633C341.152 45.393 341.537 47.5747 341.537 50.178V67.998H333.727V50.783C333.727 49.463 333.544 48.363 333.177 47.483C332.811 46.603 332.242 45.9614 331.472 45.558C330.739 45.118 329.822 44.9347 328.722 45.008C327.842 45.008 327.017 45.1547 326.247 45.448C325.514 45.7047 324.872 46.0897 324.322 46.603C323.809 47.1164 323.387 47.703 323.057 48.363C322.764 49.023 322.617 49.738 322.617 50.508V67.998H318.767C317.924 67.998 317.172 67.998 316.512 67.998C315.852 67.998 315.284 67.998 314.807 67.998Z" fill="white"/>
<path d="M10.6781 34.1052L65.6215 9.49288L61.6742 0.675848L2.55694 27.1575L5.97818 34.7943L5.92511 34.8021L7.07926 42.6735L7.32646 44.3595L12.8082 81.7462L76.8994 72.3489L71.4177 34.9622L71.1705 33.2762L70.0163 25.4048L10.6781 34.1052ZM63.3686 8.63474L57.8572 11.1045L60.898 3.11827L63.3686 8.63474ZM50.1699 7.70049L47.0174 15.9599L39.4768 19.3387L42.6222 11.0772L50.1699 7.70049ZM31.786 15.9322L28.6366 24.193L20.2479 27.9502L23.3971 19.6884L31.786 15.9322ZM12.5579 24.5434L9.40875 32.8055L7.36324 33.7217L4.81087 28.0168L12.5579 24.5434ZM57.0692 29.0253L51.7913 36.1162L43.6082 37.3161L48.8898 30.2246L57.0692 29.0253ZM37.1408 31.9473L31.8598 39.0386L22.7693 40.3715L28.0479 33.2805L37.1408 31.9473ZM11.0187 42.0947L8.76626 42.4249L7.85953 36.2408L16.2961 35.0038L11.0187 42.0947ZM69.4831 33.5224L63.5391 34.3939L68.612 27.581L69.4831 33.5224Z" fill="white"/>
</svg>
